# xmcd
#
# Track frame offsets: 
#        150
#        22222
#        36575
#        58062
#        77457
#        91180
#        108055
#        133155
#        149105
#        170082
#        184942
#        203737
#        220730
#
# Disc length: 3170 seconds
#
# Revision: 0
# Processed by: cddbd v1.5.1PL0 Copyright (c) Steve Scherf et al.
# Submitted via: ExactAudioCopy v0.95a5
#
DISCID=c20c600d
DTITLE=King Borhters - Turnin' Up The Heat
DYEAR=1994
DGENRE=Blues
TTITLE0=Blues Man
TTITLE1=Tell Me Why
TTITLE2=Second Thoughts
TTITLE3=Dance Wit' Me
TTITLE4=Last Train
TTITLE5='Bout To Loose My Mind
TTITLE6=Sweet Apple
TTITLE7=Leavin' You Baby
TTITLE8=Thinkin' 'Bout Leaving
TTITLE9=Play Me Some Blues
TTITLE10=How Long
TTITLE11=Treat Her Like A Lady
TTITLE12=Even White Boys Get The Blues
EXTD=
EXTT0=
EXTT1=
EXTT2=
EXTT3=
EXTT4=
EXTT5=
EXTT6=
EXTT7=
EXTT8=
EXTT9=
EXTT10=
EXTT11=
EXTT12=
PLAYORDER=
